<?xml version="1.0" encoding="utf-8"?>
<!-- Generator: Adobe Illustrator 21.1.0, SVG Export Plug-In . SVG Version: 6.00 Build 0)  -->
<svg version="1.1" id="Layer_1" xmlns="http://www.w3.org/2000/svg" xmlns:xlink="http://www.w3.org/1999/xlink" x="0px" y="0px"
	 viewBox="0 0 864 216" style="enable-background:new 0 0 864 216;" xml:space="preserve">
<g>
	<g>
		<path d="M676.2,82.7V8.2c6.4,0,12.8,0,19.4,0v28.2h1.4l18.1-28.2c6.5,0,15.7,0,22.3,0l-20.8,32.9l23.9,38.6v3h-21.2l-16.2-28.4
			l-7.6,0v28.4C689,82.7,682.6,82.7,676.2,82.7z"/>
		<path d="M67.1,37.8l8.6,19.4h-8.6l-6.7,16.1h21.4l4.4,9.3h18.4v-2.8L71.3,7.8h-8.1L29.8,79.9v2.8h18.5L67.1,37.8z"/>
		<path d="M190.9,8.2h6.8v74.5c-6.5,0-12.9,0-19.4,0V49.6l-15.8,16.6h-2.1l-15.7-16.6v33.1c-6.5,0-13,0-19.4,0V8.2h7l29.1,32.3
			L190.9,8.2z"/>
		<path d="M272.3,25.4c-11,0-16.6,0-27.5,0v10.5h25.2c0,5.6,0,11.2,0,16.9h-25.2c0,4.3,0,8.6,0,13c10.9,0,17.3,0,28.4,0
			c0,5.5,0,11.2,0,16.9c-17.4,0-30.1,0-47.3,0c0-24.8,0-49.7,0-74.3c17.2,0,29,0,46.4,0C272.3,13.9,272.3,19.7,272.3,25.4z"/>
		<path d="M327.6,82.7h-28V8.4h28C376,8.6,376,82.5,327.6,82.7z M318.6,65.4h9c23.7,0,23.7-39.7,0-39.7h-9V65.4z"/>
		<path d="M423.8,66v16.7h-37.7V66h9.4V25h-8.7V8.4h36.2V25h-8.7v41H423.8z"/>
		<path d="M495.6,73.3h-29.3l-4.3,9.4h-18.6v-2.8l33.4-72.5h8.2l33.5,72.5v2.8h-18.6L495.6,73.3z M480.8,37.6l-8.4,19.5h17
			L480.8,37.6z"/>
		<path d="M525.9,25.4c0-5.7,0-11.4,0-17h55.2c0,5.6,0,11.3,0,17H563v57.3c-6.3,0-12.5,0-18.8,0V25.4H525.9z"/>
		<path d="M651.4,25.4c-11,0-16.5,0-27.5,0v10.5h25.2c0,5.6,0,11.2,0,16.9h-25.2c0,4.3,0,8.6,0,13c10.9,0,17.3,0,28.4,0
			c0,5.5,0,11.2,0,16.9c-17.4,0-30.1,0-47.3,0c0-24.8,0-49.7,0-74.3c17.2,0,29,0,46.4,0C651.4,13.9,651.4,19.7,651.4,25.4z"/>
		<path d="M815.5,82.7h18.6v-2.8L800.7,7.4h-8.2l-33.5,72.5v2.8h18.6l4.4-9.3h21.5l-6.7-16.2H788l8.6-19.5L815.5,82.7z"/>
	</g>
	<g>
		<g>
			<path d="M685,137.7c0-2.5,2-4.3,4.4-4.3c2.3,0,4.4,1.8,4.4,4.3c0,2.5-2,4.3-4.4,4.3C687,142,685,140.2,685,137.7z M689.3,141.3
				c2,0,3.5-1.5,3.5-3.6c0-2-1.5-3.6-3.5-3.6c-2,0-3.5,1.5-3.5,3.6C685.8,139.7,687.4,141.3,689.3,141.3z M688.4,140.2h-0.8v-5h1.9
				c1.2,0,1.8,0.4,1.8,1.4c0,0.9-0.6,1.3-1.3,1.4l1.4,2.2h-0.8l-1.3-2.2h-0.9V140.2z M689.3,137.4c0.6,0,1.2,0,1.2-0.8
				c0-0.6-0.6-0.7-1.1-0.7h-1v1.5H689.3z"/>
			<path d="M563.7,208.1h-20.2v-28.8h-13.1v28.8h-20.8v-74.3h20.8v27.6h13.1v-27.6h20.2V208.1z M656.2,208.5
				c20.8,0,37.7-17.3,37.7-38.1c0-21.3-16.9-37.8-37.7-37.8c-20.8,0-31.4,15.3-34,21.5c0-9.3-9.1-20.2-19.8-20.2h-34.4v74.3l32.1,0
				c12.9,0,22.2-11.2,22.2-20.8C625.1,193.3,635.4,208.5,656.2,208.5z M597.3,178.2c3,0,5.3,2.9,5.3,6.3s-2.3,6.3-5.3,6.3h-10.2
				v-12.6H597.3z M597.3,150.3c3,0,5.3,2.9,5.3,6.3s-2.3,6.3-5.3,6.3h-10.2v-12.6H597.3z M610.9,170.4c2.3-0.3,6.2-3,7.6-4.7
				c-0.5,2.1-0.5,8.2,0,10.4C617,173.6,613.3,170.7,610.9,170.4z M637.3,170.4c0-10.4,8.5-18.9,18.9-18.9s18.9,8.5,18.9,18.9
				s-8.5,18.9-18.9,18.9S637.3,180.8,637.3,170.4z M656.2,185.2c8.2,0,14.9-6.7,14.9-14.9s-6.7-14.9-14.9-14.9s-14.9,6.7-14.9,14.9
				S648,185.2,656.2,185.2z"/>
		</g>
		<g>
			<g>
				<path d="M204.1,172.6h-29v21.8h-4.6v-47.3h4.6v20.8h29v-20.8h4.6v47.3h-4.6V172.6z"/>
				<path d="M243.4,146.5c13.5,0,23.7,10.1,23.7,24.3c0,14-10.2,24.3-23.7,24.3c-13.5,0-23.7-10-23.7-24.3
					C219.8,157.1,229.7,146.5,243.4,146.5z M243.4,190.4c11.2,0,18.8-8.5,18.8-19.6c0-11.3-8.2-19.6-18.8-19.6
					c-10.7,0-18.8,8.3-18.8,19.6C224.6,182,232.9,190.4,243.4,190.4z"/>
				<path d="M278.2,147.1h4.7l18.7,24.8l18-24.8h4.5v47.3h-4.6v-39.8l-17.8,24.3H301l-18.1-24v39.5h-4.6V147.1z"/>
				<path d="M339,147.1h27.2v4.7h-22.6v16.3h20.6v4.7h-20.6v16.9h23.3v4.7H339V147.1z"/>
				<path d="M418.9,146.5c13.5,0,23.7,10.1,23.7,24.3c0,14-10.2,24.3-23.7,24.3c-13.5,0-23.7-10-23.7-24.3
					C395.3,157.1,405.2,146.5,418.9,146.5z M418.9,190.4c11.2,0,18.8-8.5,18.8-19.6c0-11.3-8.2-19.6-18.8-19.6
					c-10.7,0-18.8,8.3-18.8,19.6C400.1,182,408.4,190.4,418.9,190.4z"/>
				<path d="M453.7,147.1H481v4.7h-22.7v17.7H479v4.7h-20.7v20.2h-4.6V147.1z"/>
			</g>
		</g>
	</g>
</g>
</svg>
