<?xml version="1.0" encoding="UTF-8"?>
<svg width="8772px" height="8773px" viewBox="0 0 8772 8773" version="1.1" xmlns="http://www.w3.org/2000/svg" xmlns:xlink="http://www.w3.org/1999/xlink">
    <!-- Generator: Sketch 42 (36781) - http://www.bohemiancoding.com/sketch -->
    <title>domru_logo</title>
    <desc>Created with Sketch.</desc>
    <defs></defs>
    <g id="Page-1" stroke="none" stroke-width="1" fill="none" fill-rule="evenodd">
        <g id="domru_logo" fill-rule="nonzero">
            <g id="Page-1">
                <g>
                    <g id="domru_logo">
                        <g id="Layer_x0020_1">
                            <g id="_954436416">
                                <polygon id="Shape" fill="#ED1C24" points="8772 8773 0 8773 0 0 8772 0"></polygon>
                                <path d="M3033,6597 C2682,6597 2525,6309 2525,6024 C2525,5740 2682,5455 3033,5455 C3380,5455 3535,5740 3535,6024 C3535,6309 3379,6597 3033,6597 Z M3033,5631 C2817,5631 2718,5835 2718,6025 C2718,6216 2817,6422 3033,6422 C3246,6422 3343,6216 3343,6025 C3343,5835 3246,5631 3033,5631 Z" id="Shape" fill="#FEFEFE"></path>
                                <path d="M1389,6414 C1462,6277 1475,6083 1475,5851 L1475,5526 C1475,5477 1517,5464 1567,5464 L2153,5464 C2204,5464 2246,5477 2246,5527 L2246,6415 L2355,6415 C2402,6415 2440,6424 2440,6470 L2440,6861 C2440,6910 2402,6923 2354,6923 C2305,6923 2265,6910 2265,6861 L2265,6588 L1387,6588 L1387,6861 C1387,6910 1347,6923 1299,6923 C1250,6923 1213,6910 1213,6861 L1213,6470 C1213,6414 1248,6415 1290,6415 L1390,6415 L1389,6414 Z M2055,6414 L2055,5637 L1664,5637 L1664,5851 C1664,6055 1649,6276 1584,6414 L2055,6414 Z" id="Shape" fill="#FEFEFE"></path>
                                <path d="M4760,6535 C4760,6584 4721,6596 4671,6596 C4624,6596 4583,6584 4583,6535 L4583,5879 L4336,6407 C4318,6439 4290,6456 4258,6456 C4227,6456 4198,6439 4183,6407 L3938,5882 L3938,6535 C3938,6584 3898,6596 3849,6596 C3801,6596 3758,6584 3758,6535 L3758,5513 C3758,5466 3801,5455 3849,5455 C3880,5455 3914,5471 3927,5503 L4260,6199 L4593,5503 C4606,5475 4635,5455 4671,5455 C4722,5455 4760,5466 4760,5513 L4760,6535 Z" id="Shape" fill="#FEFEFE"></path>
                                <path d="M5255,6596 C5147,6596 5059,6510 5059,6403 C5059,6294 5147,6208 5255,6208 C5362,6208 5450,6294 5450,6403 C5450,6510 5362,6596 5255,6596 Z" id="Shape" fill="#FEFEFE"></path>
                                <path d="M6304,5455 C6206,5455 6102,5515 6043,5607 L6043,5558 C6043,5476 5976,5455 5892,5455 C5809,5455 5744,5475 5744,5558 L5744,6494 C5744,6576 5811,6597 5895,6597 C5978,6597 6044,6576 6044,6494 L6045,5879 C6048,5790 6148,5739 6236,5739 C6304,5739 6324,5750 6362,5750 C6455,5750 6505,5679 6505,5603 C6505,5503 6405,5455 6305,5455 L6304,5455 Z" id="Shape" fill="#FEFEFE"></path>
                                <path d="M7413,5455 C7331,5455 7262,5478 7262,5560 L7262,6221 C7222,6279 7160,6317 7077,6317 C6948,6317 6921,6246 6921,6143 L6921,5560 C6921,5478 6852,5455 6770,5455 C6688,5455 6621,5478 6621,5560 L6621,6181 C6621,6427 6728,6596 6995,6596 C7110,6596 7204,6528 7262,6438 L7262,6493 C7262,6575 7328,6596 7413,6596 C7495,6596 7562,6575 7562,6493 L7562,5559 C7562,5477 7496,5454 7413,5454 L7413,5455 Z" id="Shape" fill="#FEFEFE"></path>
                                <path d="M5255,2425 C5104,2425 4981,2548 4981,2700 C4981,2851 5105,2974 5255,2974 C5406,2974 5530,2851 5530,2700 C5530,2548 5407,2425 5255,2425 Z" id="Shape" fill="#FEFEFE"></path>
                                <path d="M5829,2005 C5392,1902 4888,1848 4387,1848 C3884,1848 3381,1902 2944,2005 C2786,2041 2729,2130 2729,2283 L2729,4332 C2729,4487 2787,4574 2944,4611 C3382,4713 3884,4766 4387,4766 C4888,4766 5392,4713 5829,4611 C5987,4574 6044,4487 6044,4332 L6044,2283 C6044,2129 5987,2041 5829,2005 Z M5868,4324 C5868,4382 5829,4431 5774,4443 C5354,4540 4873,4591 4387,4591 C3900,4591 3420,4540 2999,4443 C2943,4430 2905,4381 2905,4324 L2905,2291 C2905,2234 2944,2185 2999,2172 C3420,2075 3900,2023 4387,2023 C4873,2023 5353,2075 5774,2172 C5829,2185 5868,2234 5868,2291 L5868,4324 Z" id="Shape" fill="#FEFEFE"></path>
                            </g>
                        </g>
                    </g>
                </g>
            </g>
        </g>
    </g>
</svg>